<?xml version="1.0" encoding="utf-8"?>
<!-- Generator: Adobe Illustrator 16.0.0, SVG Export Plug-In . SVG Version: 6.00 Build 0)  -->
<!DOCTYPE svg PUBLIC "-//W3C//DTD SVG 1.1//EN" "http://www.w3.org/Graphics/SVG/1.1/DTD/svg11.dtd">
<svg version="1.1" xmlns="http://www.w3.org/2000/svg" xmlns:xlink="http://www.w3.org/1999/xlink" x="0px" y="0px"
	 width="1303.939px" height="340.16px" viewBox="0 0 1303.939 340.16" enable-background="new 0 0 1303.939 340.16"
	 xml:space="preserve">
<g id="Livello_2" display="none">
	<rect display="inline" fill-rule="evenodd" clip-rule="evenodd" fill="#FEFEFE" width="1303.939" height="340.16"/>
</g>
<g id="Livello_1">
	<g>
		<path fill-rule="evenodd" clip-rule="evenodd" fill="#3DB44E" d="M1173.81,314.311c-11.351-19.09-22.701-38.178-35.006-58.869
			c-12.467,18.791-22.996,37.43-35.315,56.461c-11.232-18.953-21.826-36.828-33.214-56.043
			c-13.537,18.172-26.157,35.113-39.71,53.305c-11.214-16.861-19.269-34.287-30.534-51.791
			c-12.306,18.822-23.113,37.475-34.959,55.408c-0.664-0.188-1.329-0.373-1.994-0.561c-2.167-13.309-4.598-26.582-6.446-39.934
			c-3.892-28.105-4.879-56.398-3.925-84.715c1.094-32.453,5.59-64.348,19.037-94.321c11.86-26.438,29.314-48.174,57.219-58.262
			c39.585-14.311,78.011-12.36,112.492,14.392c18.813,14.596,29.751,35.011,36.292,57.371c4.647,15.887,8.229,32.313,10.069,48.748
			c4.397,39.266,1.725,78.465-4.343,117.426c-2.14,13.734-4.896,27.375-7.372,41.059
			C1175.337,314.092,1174.573,314.201,1173.81,314.311z M1166.175,270.67c0.676-0.152,1.351-0.307,2.025-0.461
			c4.71-35.285,7.955-70.588,4.671-106.309c-1.933-21.013-5.317-41.59-13.007-61.278c-14.456-37.016-40.589-58.594-81.229-60.248
			c-38.159-1.553-68.156,12.56-87.324,46.667c-9.908,17.632-15.373,36.776-18.824,56.569c-5.297,30.39-4.902,61.028-3.604,91.661
			c0.443,10.461,2.094,20.871,3.193,31.305c0.656,0.146,1.313,0.293,1.969,0.439c8.75-13.855,17.501-27.711,26.849-42.512
			c10.637,18.635,20.479,35.877,31.105,54.492c13.585-18.26,26.342-35.406,39.724-53.395c10.945,18.414,21.166,35.611,32.123,54.045
			c12.193-19.621,23.355-37.586,35.14-56.551C1148.568,241.158,1157.372,255.914,1166.175,270.67z"/>
		<path fill-rule="evenodd" clip-rule="evenodd" fill="#EBC528" d="M271.208,169.254c3.504,2.797,5.968,4.918,8.585,6.83
			c29.857,21.795,59.568,43.797,89.723,65.172c8.346,5.918,8.821,14.506,2.413,21.83c-31.589,36.104-71.022,54.057-119.053,52.486
			c-63.083-2.063-119.115-47.74-134.463-109.367c-20.947-84.111,33.886-167.471,119.64-179.984
			c46.445-6.777,87.693,6.396,122.215,38.817c8.568,8.048,8.416,13.287-0.319,21.438c-25.564,23.854-51.195,47.639-76.789,71.462
			C279.326,161.506,275.551,165.138,271.208,169.254z M349.667,76.2c-29.727-32.846-87.343-48.341-137.947-28.262
			c-54.529,21.637-88.049,74.941-82.915,133.704c5.182,59.316,47.894,104.676,102.933,116.877
			c52.933,11.734,106.784-13.377,128.333-45.916c-4.477-3.301-8.979-6.646-13.509-9.955c-28.76-21.016-57.551-41.988-86.273-63.055
			c-7.168-5.258-7.817-12.498-1.605-18.333c19.895-18.688,39.911-37.246,59.861-55.875C328.945,95.674,339.306,85.919,349.667,76.2z
			"/>
		<path fill-rule="evenodd" clip-rule="evenodd" fill="#B82D32" d="M764.877,213.58c6.505,9.979,7.962,20.885-0.584,31.486
			c-6.816,8.457-16.11,10.834-26.066,7.883c-12.367-3.668-17.555-13.344-18.102-26.785c-2.725,2.518-4.738,4.547-6.922,6.373
			c-10.814,9.041-26.096,9.475-36.839,1.105c-10.971-8.547-14.412-23.488-8.258-35.85c6.429-12.916,20.541-19.48,34.335-14.848
			c5.917,1.988,10.645,1.279,16.028-0.953c14.54-6.029,28.432-12.984,39.565-24.468c7.596-7.835,12.516-17.099,14.851-27.752
			c1.571-7.167,3.687-14.377-2.761-20.214c6.518-5.319,11.163-4.896,15.22,1.34c4.127,6.345,5.524,13.588,4.19,21.03
			c-1.521,8.485-2.957,17.072-5.553,25.26C778.063,175.852,771.458,194.299,764.877,213.58z M693.734,188.961
			c-12.1,0.203-21.414,9.598-21.404,21.588c0.01,12.182,10.3,22.365,22.289,22.059c11.534-0.295,21.577-10.504,21.585-21.939
			C716.213,198.465,706.157,188.752,693.734,188.961z M758.735,207.285c7.519-22.65,14.786-44.547,22.054-66.442
			c-0.718-0.473-1.435-0.944-2.152-1.417c-10.575,29.302-35.962,41.072-60.243,51.682c2.192,8.754,4.059,16.207,6.116,24.426
			C733.212,204.211,744.487,203.113,758.735,207.285z M745.519,247.021c9.167-0.086,17.059-8.023,17.192-17.295
			c0.144-9.875-7.835-18.023-17.51-17.887c-9.471,0.133-17.021,7.711-17.137,17.199C727.942,239.01,735.806,247.111,745.519,247.021
			z"/>
		<path fill-rule="evenodd" clip-rule="evenodd" fill="#F0972E" d="M622.962,180.689c-0.179,26.551-22.562,48.994-48.608,47.906
			c-32.042-1.34-48.091-26.66-47.808-48.881c0.306-24.011,18.505-48.102,48.789-47.671
			C607.684,132.505,623.804,159.036,622.962,180.689z M574.276,145.13c-19.418,0.208-34.431,15.586-34.356,35.192
			c0.075,19.896,15.744,35.309,35.606,35.025c19.122-0.275,34.646-16.096,34.597-35.26
			C610.072,160.479,594.117,144.918,574.276,145.13z"/>
		<path fill-rule="evenodd" clip-rule="evenodd" fill="#3A338C" d="M425.21,131.192c26.813-0.061,48.698,21.405,48.808,47.872
			c0.109,26.363-21.819,48.322-48.309,48.373c-26.715,0.053-48.406-21.25-48.761-47.889
			C376.599,153.284,398.587,131.253,425.21,131.192z M460.598,179.172c0.013-19.182-15.548-34.938-34.745-35.183
			c-19.492-0.249-35.588,15.79-35.548,35.423c0.039,19.27,15.4,34.742,34.792,35.043C444.738,214.76,460.584,199.01,460.598,179.172
			z"/>
		<path fill-rule="evenodd" clip-rule="evenodd" fill="#58595B" d="M919.204,177.957c-0.613,27.1-22.121,48.051-48.789,47.529
			c-26.541-0.52-48.145-22.725-47.66-48.988c0.496-26.929,22.885-48.083,50.129-47.363
			C899.124,129.827,919.8,151.62,919.204,177.957z M906.409,177.006c-0.095-18.914-16.188-35.112-34.933-35.16
			c-19.593-0.049-35.491,15.937-35.351,35.547c0.141,19.594,15.215,34.701,34.782,34.859
			C890.777,212.412,906.509,196.795,906.409,177.006z"/>
		<path fill-rule="evenodd" clip-rule="evenodd" fill="#3DB44E" d="M1132.91,122.857c0.149,11.735-8.213,19.884-19.906,20.256
			c-12.758,0.407-20.529-11.455-20.346-20.195c0.219-10.469,9.258-19.689,19.792-20.046
			C1123.573,102.496,1132.765,111.476,1132.91,122.857z"/>
		<path fill-rule="evenodd" clip-rule="evenodd" fill="#3DB44E" d="M1029.001,143.027c-11.722,0.042-20.462-8.426-20.471-19.83
			c-0.008-11.107,9.206-20.327,20.319-20.332c10.89-0.004,20.02,9.51,19.872,20.707
			C1048.575,134.558,1040.03,142.988,1029.001,143.027z"/>
		<path fill-rule="evenodd" clip-rule="evenodd" fill="#EBC528" d="M274.038,90.837c-0.062,10.763-10.042,20.487-20.745,20.216
			c-10.643-0.271-19.757-9.389-19.919-19.929c-0.173-11.229,8.93-20.521,20.146-20.566C264.68,70.512,274.102,79.823,274.038,90.837
			z"/>
	</g>
</g>
</svg>
